<svg width="32" height="32" viewBox="0 0 32 32" fill="none" xmlns="http://www.w3.org/2000/svg">
<path fill-rule="evenodd" clip-rule="evenodd" d="M3.36033 10.4306C2.66699 11.6933 2.66699 13.22 2.66699 16.2706V18.3C2.66699 23.5 2.66699 26.1013 4.22966 27.7173C5.79233 29.3333 8.30566 29.3333 13.3337 29.3333H18.667C23.695 29.3333 26.2097 29.3333 27.771 27.7173C29.3323 26.1013 29.3337 23.5013 29.3337 18.3V16.272C29.3337 13.22 29.3337 11.6946 28.6403 10.4306C27.9497 9.16529 26.6843 8.38129 24.155 6.81063L21.4883 5.15596C18.815 3.49596 17.4777 2.66663 16.0003 2.66663C14.523 2.66663 13.187 3.49596 10.5123 5.15596L7.84566 6.81063C5.31633 8.38129 4.05233 9.16529 3.36033 10.4306ZM15.0003 24C15.0003 24.2652 15.1057 24.5195 15.2932 24.7071C15.4808 24.8946 15.7351 25 16.0003 25C16.2655 25 16.5199 24.8946 16.7074 24.7071C16.895 24.5195 17.0003 24.2652 17.0003 24V20C17.0003 19.7347 16.895 19.4804 16.7074 19.2929C16.5199 19.1053 16.2655 19 16.0003 19C15.7351 19 15.4808 19.1053 15.2932 19.2929C15.1057 19.4804 15.0003 19.7347 15.0003 20V24Z" fill="#2A5EDC"/>
</svg>
