<svg width="32" height="32" viewBox="0 0 32 32" fill="none" xmlns="http://www.w3.org/2000/svg">
<path d="M13 3.53198C12.2044 3.53198 11.4413 3.84805 10.8787 4.41066C10.3161 4.97327 10 5.73633 10 6.53198V10.032H7C6.20435 10.032 5.44129 10.3481 4.87868 10.9107C4.31607 11.4733 4 12.2363 4 13.032V19.002C4 19.7976 4.31607 20.5607 4.87868 21.1233C5.44129 21.6859 6.20435 22.002 7 22.002H10V25.002C10 25.7976 10.3161 26.5607 10.8787 27.1233C11.4413 27.6859 12.2044 28.002 13 28.002H19C19.7956 28.002 20.5587 27.6859 21.1213 27.1233C21.6839 26.5607 22 25.7976 22 25.002V22.002H25C25.7956 22.002 26.5587 21.6859 27.1213 21.1233C27.6839 20.5607 28 19.7976 28 19.002V13.002C28 12.2063 27.6839 11.4433 27.1213 10.8807C26.5587 10.3181 25.7956 10.002 25 10.002H22V6.53198C22 5.73633 21.6839 4.97327 21.1213 4.41066C20.5587 3.84805 19.7956 3.53198 19 3.53198H13Z" fill="#2A5EDC"/>
</svg>
