<svg width="32" height="32" viewBox="0 0 32 32" fill="none" xmlns="http://www.w3.org/2000/svg">
<path d="M13 5.53198C12.7348 5.53198 12.4804 5.63734 12.2929 5.82488C12.1054 6.01241 12 6.26677 12 6.53198V11.032C12 11.2972 11.8946 11.5516 11.7071 11.7391C11.5196 11.9266 11.2652 12.032 11 12.032H7C6.73478 12.032 6.48043 12.1373 6.29289 12.3249C6.10536 12.5124 6 12.7668 6 13.032V19.002C6 19.2672 6.10536 19.5216 6.29289 19.7091C6.48043 19.8966 6.73478 20.002 7 20.002H11C11.2652 20.002 11.5196 20.1073 11.7071 20.2949C11.8946 20.4824 12 20.7368 12 21.002V25.002C12 25.2672 12.1054 25.5216 12.2929 25.7091C12.4804 25.8966 12.7348 26.002 13 26.002H19C19.2652 26.002 19.5196 25.8966 19.7071 25.7091C19.8946 25.5216 20 25.2672 20 25.002V21.002C20 20.7368 20.1054 20.4824 20.2929 20.2949C20.4804 20.1073 20.7348 20.002 21 20.002H25C25.2652 20.002 25.5196 19.8966 25.7071 19.7091C25.8946 19.5216 26 19.2672 26 19.002V13.002C26 12.7368 25.8946 12.4824 25.7071 12.2949C25.5196 12.1073 25.2652 12.002 25 12.002H21C20.7348 12.002 20.4804 11.8966 20.2929 11.7091C20.1054 11.5216 20 11.2672 20 11.002V6.53198C20 6.26677 19.8946 6.01241 19.7071 5.82488C19.5196 5.63734 19.2652 5.53198 19 5.53198H13ZM10 6.53198C10 5.73633 10.3161 4.97327 10.8787 4.41066C11.4413 3.84805 12.2044 3.53198 13 3.53198H19C19.7956 3.53198 20.5587 3.84805 21.1213 4.41066C21.6839 4.97327 22 5.73633 22 6.53198V9.99998H25C25.7956 9.99998 26.5587 10.3161 27.1213 10.8787C27.6839 11.4413 28 12.2043 28 13V19C28 19.7956 27.6839 20.5587 27.1213 21.1213C26.5587 21.6839 25.7956 22 25 22H22V25C22 25.7956 21.6839 26.5587 21.1213 27.1213C20.5587 27.6839 19.7956 28 19 28H13C12.2044 28 11.4413 27.6839 10.8787 27.1213C10.3161 26.5587 10 25.7956 10 25V22H7C6.20435 22 5.44129 21.6839 4.87868 21.1213C4.31607 20.5587 4 19.7956 4 19V13.034C4 12.2383 4.31607 11.4753 4.87868 10.9127C5.44129 10.3501 6.20435 10.034 7 10.034H10V6.53198Z" fill="#212122"/>
</svg>
