<svg width="32" height="32" viewBox="0 0 32 32" fill="none" xmlns="http://www.w3.org/2000/svg">
<g clip-path="url(#clip0_1064_686)">
<path fill-rule="evenodd" clip-rule="evenodd" d="M6.66699 10C6.66699 9.21207 6.82219 8.43185 7.12372 7.7039C7.42524 6.97595 7.8672 6.31451 8.42435 5.75736C8.9815 5.20021 9.64294 4.75825 10.3709 4.45672C11.0988 4.15519 11.8791 4 12.667 4C13.4549 4 14.2351 4.15519 14.9631 4.45672C15.691 4.75825 16.3525 5.20021 16.9096 5.75736C17.4668 6.31451 17.9087 6.97595 18.2103 7.7039C18.5118 8.43185 18.667 9.21207 18.667 10C18.667 11.5913 18.0349 13.1174 16.9096 14.2426C15.7844 15.3679 14.2583 16 12.667 16C11.0757 16 9.54957 15.3679 8.42435 14.2426C7.29913 13.1174 6.66699 11.5913 6.66699 10ZM12.667 6.66667C11.7829 6.66667 10.9351 7.01786 10.31 7.64298C9.68485 8.2681 9.33366 9.11595 9.33366 10C9.33366 10.8841 9.68485 11.7319 10.31 12.357C10.9351 12.9821 11.7829 13.3333 12.667 13.3333C13.551 13.3333 14.3989 12.9821 15.024 12.357C15.6491 11.7319 16.0003 10.8841 16.0003 10C16.0003 9.11595 15.6491 8.2681 15.024 7.64298C14.3989 7.01786 13.551 6.66667 12.667 6.66667ZM12.667 17.3333C15.3243 17.3333 17.7403 18.144 19.5163 19.288C20.4057 19.8613 21.167 20.5373 21.7203 21.2747C22.263 22.0013 22.667 22.8747 22.667 23.8093C22.667 24.816 22.2003 25.6227 21.515 26.2053C20.8683 26.752 20.0257 27.1067 19.155 27.3507C17.4043 27.84 15.0883 28 12.667 28C10.2457 28 7.92966 27.84 6.18033 27.3507C5.30833 27.1067 4.46566 26.752 3.82033 26.2053C3.13233 25.624 2.66699 24.816 2.66699 23.8093C2.66699 22.8733 3.07099 22.0013 3.61366 21.276C4.16699 20.5373 4.92833 19.86 5.81766 19.2893C7.59366 18.1427 10.0097 17.3333 12.667 17.3333ZM12.667 20C10.5377 20 8.62033 20.656 7.26033 21.5307C6.58033 21.968 6.07366 22.44 5.74833 22.8733C5.41499 23.3187 5.33366 23.6413 5.33366 23.8093C5.33366 23.908 5.35366 24.0093 5.54299 24.1693C5.77366 24.3667 6.20166 24.588 6.89766 24.7827C8.28433 25.1693 10.3017 25.3333 12.667 25.3333C15.0323 25.3333 17.0497 25.1693 18.4363 24.7827C19.1323 24.588 19.5603 24.3667 19.791 24.1693C19.9803 24.0093 20.0003 23.908 20.0003 23.8093C20.0003 23.6413 19.919 23.3187 19.5857 22.8733C19.2603 22.44 18.7537 21.968 18.0737 21.5307C16.7137 20.656 14.7963 20 12.667 20ZM24.0003 17.3333C25.7603 17.3333 27.3577 17.9147 28.5337 18.7347C29.6297 19.4987 30.667 20.704 30.667 22.0947C30.667 22.8773 30.3297 23.5253 29.8163 23.996C29.3403 24.4333 28.7377 24.7 28.1577 24.876C26.9977 25.2267 25.5043 25.3333 24.0003 25.3333H23.7297C23.903 24.8693 24.0003 24.36 24.0003 23.8093C23.9985 23.5107 23.9719 23.2218 23.9203 22.9427L23.8577 22.6667H24.0003C25.4417 22.6667 26.6137 22.5573 27.3857 22.324C27.735 22.2173 27.915 22.1107 27.9923 22.0493C27.9537 21.892 27.7457 21.436 27.0083 20.9227C26.3658 20.485 25.6354 20.193 24.8682 20.0672C24.101 19.9415 23.3156 19.985 22.567 20.1947C21.9216 19.4281 21.1647 18.7629 20.3217 18.2213C21.4603 17.6383 22.7211 17.334 24.0003 17.3333ZM20.0003 12C20.0003 10.9391 20.4218 9.92172 21.1719 9.17157C21.922 8.42143 22.9395 8 24.0003 8C25.0612 8 26.0786 8.42143 26.8288 9.17157C27.5789 9.92172 28.0003 10.9391 28.0003 12C28.0003 13.0609 27.5789 14.0783 26.8288 14.8284C26.0786 15.5786 25.0612 16 24.0003 16C22.9395 16 21.922 15.5786 21.1719 14.8284C20.4218 14.0783 20.0003 13.0609 20.0003 12ZM24.0003 10.6667C23.6467 10.6667 23.3076 10.8071 23.0575 11.0572C22.8075 11.3072 22.667 11.6464 22.667 12C22.667 12.3536 22.8075 12.6928 23.0575 12.9428C23.3076 13.1929 23.6467 13.3333 24.0003 13.3333C24.3539 13.3333 24.6931 13.1929 24.9431 12.9428C25.1932 12.6928 25.3337 12.3536 25.3337 12C25.3337 11.6464 25.1932 11.3072 24.9431 11.0572C24.6931 10.8071 24.3539 10.6667 24.0003 10.6667Z" fill="#212122"/>
</g>
<defs>
<clipPath id="clip0_1064_686">
<rect width="32" height="32" fill="white"/>
</clipPath>
</defs>
</svg>
