<svg width="32" height="32" viewBox="0 0 32 32" fill="none" xmlns="http://www.w3.org/2000/svg">
<path d="M12.667 16C14.2583 16 15.7844 15.3679 16.9096 14.2426C18.0349 13.1174 18.667 11.5913 18.667 10C18.667 8.4087 18.0349 6.88258 16.9096 5.75736C15.7844 4.63214 14.2583 4 12.667 4C11.0757 4 9.54957 4.63214 8.42435 5.75736C7.29913 6.88258 6.66699 8.4087 6.66699 10C6.66699 11.5913 7.29913 13.1174 8.42435 14.2426C9.54957 15.3679 11.0757 16 12.667 16ZM28.0003 12C28.0003 13.0609 27.5789 14.0783 26.8288 14.8284C26.0786 15.5786 25.0612 16 24.0003 16C22.9395 16 21.922 15.5786 21.1719 14.8284C20.4218 14.0783 20.0003 13.0609 20.0003 12C20.0003 10.9391 20.4218 9.92172 21.1719 9.17157C21.922 8.42143 22.9395 8 24.0003 8C25.0612 8 26.0786 8.42143 26.8288 9.17157C27.5789 9.92172 28.0003 10.9391 28.0003 12ZM12.667 17.3333C15.3243 17.3333 17.7403 18.144 19.5163 19.288C20.4057 19.8613 21.167 20.5373 21.7203 21.2747C22.263 22.0013 22.667 22.8747 22.667 23.8093C22.667 24.816 22.2003 25.6227 21.515 26.2053C20.8683 26.752 20.0257 27.1067 19.155 27.3507C17.4043 27.84 15.0883 28 12.667 28C10.2457 28 7.92966 27.84 6.18033 27.3507C5.30833 27.1067 4.46566 26.752 3.82033 26.2053C3.13233 25.624 2.66699 24.816 2.66699 23.8093C2.66699 22.8733 3.07099 22.0013 3.61366 21.276C4.16699 20.5373 4.92833 19.86 5.81766 19.2893C7.59366 18.1427 10.0097 17.3333 12.667 17.3333ZM24.0003 17.3333C25.7603 17.3333 27.3577 17.9147 28.5337 18.7347C29.6297 19.4987 30.667 20.704 30.667 22.0947C30.667 22.8773 30.3297 23.5253 29.8163 23.996C29.3403 24.4333 28.7377 24.7 28.1577 24.876C26.9977 25.2267 25.5043 25.3333 24.0003 25.3333H23.7297C23.903 24.8693 24.0003 24.36 24.0003 23.8093C24.0003 22.4893 23.4363 21.3427 22.787 20.476C22.139 19.6107 21.2803 18.8493 20.3217 18.2213C21.4603 17.6383 22.7211 17.334 24.0003 17.3333Z" fill="#2A5EDC"/>
</svg>
