<svg width="32" height="32" viewBox="0 0 32 32" fill="none" xmlns="http://www.w3.org/2000/svg">
<path d="M18.6663 26.6667H5.33301V22.6667C5.33301 19.0667 12.3997 17.3334 15.9997 17.3334C17.9997 17.3334 21.1997 17.8667 23.5997 19.0667C22.533 19.4667 21.733 20 20.933 20.6667C19.4663 20.1334 17.733 19.8667 15.9997 19.8667C11.9997 19.8667 7.86634 21.8667 7.86634 22.6667V24.1334H18.933C18.7997 24.6667 18.6663 25.3334 18.6663 26V26.6667ZM30.6663 26C30.6663 28.5334 28.533 30.6667 25.9997 30.6667C23.4663 30.6667 21.333 28.5334 21.333 26C21.333 23.4667 23.4663 21.3334 25.9997 21.3334C28.533 21.3334 30.6663 23.4667 30.6663 26ZM15.9997 8.00004C17.4663 8.00004 18.6663 9.20004 18.6663 10.6667C18.6663 12.1334 17.4663 13.3334 15.9997 13.3334C14.533 13.3334 13.333 12.1334 13.333 10.6667C13.333 9.20004 14.533 8.00004 15.9997 8.00004ZM15.9997 5.33337C13.0663 5.33337 10.6663 7.73337 10.6663 10.6667C10.6663 13.6 13.0663 16 15.9997 16C18.933 16 21.333 13.6 21.333 10.6667C21.333 7.73337 18.933 5.33337 15.9997 5.33337Z" fill="#2A5EDC"/>
</svg>
